<?xml version="1.0" standalone="no"?>
<!DOCTYPE svg PUBLIC "-//W3C//DTD SVG 20010904//EN"
 "http://www.w3.org/TR/2001/REC-SVG-20010904/DTD/svg10.dtd">
<svg version="1.0" xmlns="http://www.w3.org/2000/svg"
 width="676.000000pt" height="1280.000000pt" viewBox="0 0 676.000000 1280.000000"
 preserveAspectRatio="xMidYMid meet">
<metadata>
Created by potrace 1.15, written by Peter Selinger 2001-2017
</metadata>
<g transform="translate(0.000000,1280.000000) scale(0.100000,-0.100000)"
fill="#000000" stroke="none">
<path d="M5683 12748 c-335 -250 -896 -804 -1190 -1173 -151 -191 -275 -403
-302 -517 -33 -141 26 -343 149 -508 l39 -53 -32 -38 c-18 -21 -878 -1035
-1912 -2253 -1341 -1579 -1883 -2211 -1892 -2204 -7 6 -61 0 -154 -16 -78 -14
-143 -27 -144 -28 -2 -4 -226 -301 -237 -314 -6 -8 63 -69 212 -188 122 -97
226 -179 233 -181 7 -3 67 71 137 166 l125 170 -4 72 c-2 39 -7 96 -11 126
l-7 55 1925 2233 1925 2234 26 -24 c74 -69 225 -153 340 -187 96 -30 223 -25
291 10 190 97 532 494 948 1100 247 359 529 815 520 840 -2 6 -340 -384 -751
-867 -412 -483 -763 -888 -780 -900 -45 -33 -88 -38 -132 -17 -46 21 -70 68
-61 115 5 23 235 348 701 987 382 525 691 952 686 950 -5 -2 -334 -385 -731
-853 -397 -467 -741 -869 -765 -892 -33 -32 -52 -43 -75 -43 -70 0 -118 57
-107 126 4 26 174 259 688 947 375 502 687 919 692 927 27 39 -80 -82 -768
-860 -791 -895 -779 -883 -854 -864 -19 5 -43 21 -53 35 -17 23 -18 30 -7 73
14 56 -46 -23 788 1031 352 446 641 813 641 816 0 24 -38 11 -97 -33z m-5129
-6907 l58 -59 5 -85 6 -85 -93 -126 c-57 -78 -96 -123 -104 -119 -6 4 -81 63
-166 132 -85 69 -156 126 -158 127 -2 1 38 56 88 122 l92 121 77 14 c127 25
129 24 195 -42z"/>
<path d="M2123 12569 c-204 -22 -280 -42 -401 -111 -93 -52 -260 -214 -311
-300 -67 -115 -110 -257 -111 -364 0 -50 0 -50 -47 -73 -144 -70 -255 -170
-305 -277 -27 -59 -30 -73 -26 -138 6 -87 37 -152 110 -227 401 -407 1655
-494 2323 -162 169 85 268 171 322 281 22 45 27 70 27 127 0 60 -4 79 -33 133
-41 76 -144 176 -236 229 l-65 37 0 76 c0 193 -115 462 -238 556 -53 40 -331
181 -412 208 -83 28 -360 31 -597 5z"/>
<path d="M1580 10704 c0 -75 34 -221 69 -297 172 -381 597 -540 961 -361 81
40 109 60 185 138 138 138 210 295 222 480 l6 89 -24 -6 c-302 -68 -415 -81
-709 -80 -175 0 -281 5 -370 17 -124 17 -289 48 -322 61 -16 6 -18 1 -18 -41z"/>
<path d="M1430 9839 c-113 -71 -211 -133 -217 -137 -14 -8 -16 -40 -103 -1327
-68 -1025 -102 -1563 -98 -1587 2 -16 32 11 139 128 378 416 636 711 1414
1624 275 322 559 654 632 738 104 119 132 158 129 175 -3 12 -10 72 -16 132
-6 61 -13 122 -16 136 -5 24 -28 36 -242 128 -130 55 -241 101 -246 101 -4 0
-29 -15 -55 -34 -63 -46 -153 -90 -241 -118 -108 -33 -302 -33 -410 0 -96 31
-193 80 -258 131 -51 40 -53 41 -129 40 l-78 -1 -205 -129z"/>
<path d="M3465 9668 c4 -29 9 -55 11 -57 3 -3 25 15 50 40 l45 44 -38 12 c-72
22 -76 20 -68 -39z"/>
<path d="M900 9560 c-96 -43 -178 -85 -182 -92 -10 -18 -470 -1938 -470 -1963
0 -11 47 -211 105 -445 58 -234 124 -503 147 -598 23 -95 44 -172 45 -170 2 2
82 100 179 218 130 159 174 219 171 235 -3 11 -43 225 -89 476 l-85 457 185
973 c101 536 184 977 184 982 0 12 -7 9 -190 -73z"/>
<path d="M3722 9217 l-161 -203 125 -590 c69 -324 147 -692 173 -819 27 -126
48 -231 47 -232 -1 -2 -222 83 -490 187 -268 105 -497 191 -508 193 -18 2 -50
-45 -190 -266 -93 -148 -168 -270 -166 -272 2 -3 181 -36 398 -75 217 -40 617
-112 889 -161 272 -49 495 -88 496 -87 1 2 -15 100 -37 218 -54 304 -107 602
-268 1510 -78 437 -143 796 -145 798 -2 2 -75 -88 -163 -201z"/>
<path d="M2770 8112 c-338 -398 -868 -1020 -1177 -1381 l-563 -656 0 -75 c0
-41 4 -79 8 -85 7 -10 35 -10 1092 15 278 6 742 17 1032 24 290 6 530 15 534
18 6 7 -94 959 -102 967 -2 3 -272 53 -600 112 -328 60 -598 110 -601 112 -2
2 107 169 242 370 197 295 249 365 263 360 9 -3 89 -40 177 -81 364 -170 414
-192 428 -192 9 0 13 8 10 23 -2 12 -21 202 -44 422 -63 627 -77 767 -81 770
-2 1 -280 -324 -618 -723z"/>
<path d="M3115 5654 c-38 -2 -446 -8 -905 -13 -459 -6 -908 -14 -998 -17
l-164 -6 7 -72 c3 -39 50 -701 104 -1471 l98 -1400 -62 -1023 c-52 -863 -64
-1025 -78 -1040 -9 -9 -146 -138 -306 -287 -159 -148 -285 -272 -279 -274 6
-2 103 2 217 8 113 6 462 25 775 41 313 17 571 32 574 34 2 3 -5 100 -17 217
l-20 212 20 1051 21 1051 174 994 c95 546 175 995 177 997 2 2 35 -171 75
-384 294 -1584 232 -1291 727 -3432 l64 -275 -43 -65 c-24 -36 -93 -137 -154
-226 l-110 -161 227 -6 c418 -12 1041 -20 1041 -14 0 4 -76 129 -169 278 -161
257 -170 274 -175 332 -4 34 -15 215 -26 402 -11 187 -47 789 -80 1337 l-60
998 0 1110 0 1110 -292 -2 c-161 -1 -324 -3 -363 -4z"/>
<path d="M4928 4410 c-19 -27 -24 -60 -8 -60 14 0 32 38 28 63 -3 22 -3 22
-20 -3z"/>
<path d="M4850 4350 c-14 -35 -8 -49 15 -30 16 13 21 60 6 60 -5 0 -14 -14
-21 -30z"/>
<path d="M6132 4355 c-15 -31 -15 -55 -2 -55 13 0 30 34 30 59 0 29 -14 26
-28 -4z"/>
<path d="M5205 4360 c3 -5 10 -10 16 -10 5 0 9 5 9 10 0 6 -7 10 -16 10 -8 0
-12 -4 -9 -10z"/>
<path d="M4891 4309 c-13 -38 -3 -60 16 -34 15 21 18 65 4 65 -5 0 -14 -14
-20 -31z"/>
<path d="M6073 4329 c-16 -20 -27 -69 -15 -69 18 0 33 29 30 56 -2 23 -5 25
-15 13z"/>
<path d="M6416 4321 c-4 -5 -2 -12 3 -15 5 -4 12 -2 15 3 4 5 2 12 -3 15 -5 4
-12 2 -15 -3z"/>
<path d="M4923 4278 c-17 -20 -21 -60 -6 -65 13 -5 27 35 21 63 -3 15 -5 15
-15 2z"/>
<path d="M6099 4261 c-6 -16 -17 -32 -25 -35 -15 -6 -20 -76 -5 -76 10 0 21
24 21 48 0 10 9 23 20 30 21 13 28 62 9 62 -5 0 -15 -13 -20 -29z"/>
<path d="M4856 4265 c-3 -9 -6 -28 -6 -42 0 -34 24 -24 28 11 4 33 -12 56 -22
31z"/>
<path d="M4816 4254 c-3 -9 -6 -30 -6 -47 1 -30 1 -31 15 -13 17 22 20 62 6
70 -5 3 -12 -1 -15 -10z"/>
<path d="M6121 4209 c-13 -38 -3 -60 16 -34 15 21 18 65 4 65 -5 0 -14 -14
-20 -31z"/>
<path d="M6025 4209 c-10 -29 -10 -62 2 -66 15 -5 28 56 14 70 -7 7 -12 6 -16
-4z"/>
<path d="M4884 4165 c-7 -30 2 -59 16 -50 13 8 13 75 0 75 -5 0 -12 -11 -16
-25z"/>
<path d="M4835 4139 c-9 -42 10 -61 26 -26 12 27 7 57 -10 57 -5 0 -12 -14
-16 -31z"/>
<path d="M4786 4153 c-3 -3 -6 -25 -6 -47 1 -38 2 -40 15 -22 23 31 15 93 -9
69z"/>
<path d="M6094 4126 c-8 -21 -1 -61 11 -61 6 0 11 17 13 38 3 37 -13 52 -24
23z"/>
<path d="M6044 4095 c-7 -30 2 -59 16 -50 13 8 13 75 0 75 -5 0 -12 -11 -16
-25z"/>
<path d="M5996 4099 c-12 -33 -10 -69 3 -69 14 0 25 60 12 73 -7 7 -12 6 -15
-4z"/>
<path d="M4810 4066 c-14 -37 -13 -59 3 -54 19 7 33 56 19 70 -8 8 -14 5 -22
-16z"/>
<path d="M4859 4063 c-5 -14 -7 -34 -4 -42 6 -14 8 -13 21 3 16 23 19 66 4 66
-6 0 -15 -12 -21 -27z"/>
<path d="M4585 4040 c-8 -13 4 -32 16 -25 12 8 12 35 0 35 -6 0 -13 -4 -16
-10z"/>
<path d="M4759 4013 c-5 -14 -7 -34 -4 -42 6 -14 8 -13 21 3 16 23 19 66 4 66
-6 0 -15 -12 -21 -27z"/>
<path d="M6021 4022 c-15 -28 -14 -65 1 -60 17 6 32 58 20 70 -7 7 -14 4 -21
-10z"/>
<path d="M6068 4016 c-12 -28 -3 -65 12 -50 5 5 13 24 16 42 8 39 -11 44 -28
8z"/>
<path d="M4826 4004 c-3 -9 -6 -25 -6 -35 0 -11 -5 -17 -10 -14 -12 7 -33 -43
-26 -62 9 -21 23 -15 30 13 4 15 14 33 21 41 8 8 15 28 15 44 0 31 -14 39 -24
13z"/>
<path d="M5797 3993 c-12 -11 -8 -23 8 -23 8 0 15 7 15 15 0 16 -12 20 -23 8z"/>
<path d="M5970 3976 c-14 -38 -13 -56 4 -56 18 0 32 58 17 73 -7 7 -13 2 -21
-17z"/>
<path d="M6037 3963 c-4 -3 -7 -19 -7 -34 0 -20 -4 -27 -14 -23 -15 6 -33 -47
-21 -66 10 -16 25 -11 25 9 0 10 9 30 20 44 28 36 25 99 -3 70z"/>
<path d="M4837 3924 c-4 -4 -7 -23 -7 -41 0 -42 23 -41 28 1 4 29 -9 52 -21
40z"/>
<path d="M4736 3876 c-6 -26 1 -56 14 -56 11 0 23 57 15 70 -11 17 -23 11 -29
-14z"/>
<path d="M6047 3873 c-10 -10 -8 -73 2 -73 11 0 21 25 21 56 0 23 -10 31 -23
17z"/>
<path d="M4784 3835 c-7 -30 2 -59 16 -50 13 8 13 75 0 75 -5 0 -12 -11 -16
-25z"/>
<path d="M4387 3803 c-3 -27 -9 -101 -13 -166 l-7 -118 -49 55 c-26 30 -67 70
-91 88 -39 31 -38 28 22 -41 34 -41 74 -92 88 -112 l25 -38 -12 -298 c-16
-387 -17 -1311 -1 -1503 18 -212 57 -504 91 -670 41 -203 83 -342 153 -510
l61 -145 4 -147 c3 -128 5 -148 19 -148 14 0 15 16 10 143 l-5 142 45 95 c90
188 149 365 177 530 26 153 39 448 33 750 -6 246 -25 521 -38 534 -2 3 -3 -62
-1 -142 6 -230 -15 -707 -38 -892 -12 -91 -35 -235 -51 -320 -30 -154 -102
-457 -118 -495 -8 -21 -21 651 -21 1141 0 293 1 304 25 390 51 179 197 434
373 654 42 52 157 176 256 275 184 184 165 178 -47 -13 -140 -127 -310 -309
-380 -407 -27 -38 -74 -119 -104 -180 -29 -60 -51 -99 -48 -85 71 335 133 568
166 627 32 58 34 63 19 63 -6 0 -23 -20 -39 -45 -33 -52 -65 -168 -152 -550
-33 -148 -63 -272 -66 -275 -6 -6 5 547 18 910 14 396 33 643 66 834 5 31 3
38 -8 34 -35 -12 -78 -508 -94 -1093 -7 -234 -7 -2136 0 -2210 8 -85 -7 -45
-39 105 -15 69 -45 208 -67 309 -65 298 -104 614 -129 1036 -14 245 -32 1043
-28 1295 l3 215 47 -85 c62 -113 111 -227 164 -385 49 -147 56 -149 19 -7 -53
209 -116 365 -193 480 l-41 60 6 181 c6 175 2 231 -10 134z"/>
<path d="M5945 3819 c-10 -43 11 -62 25 -24 11 30 7 55 -9 55 -5 0 -12 -14
-16 -31z"/>
<path d="M5597 3763 c-4 -27 -9 -101 -13 -165 -4 -65 -9 -118 -11 -118 -2 0
-29 27 -60 60 -31 33 -70 70 -87 82 -24 17 -18 8 25 -42 30 -36 70 -84 88
-108 l33 -42 -13 -288 c-16 -380 -17 -1352 0 -1537 45 -511 124 -883 250
-1186 l61 -146 0 -137 c0 -106 3 -137 13 -133 9 3 11 39 9 145 l-3 140 39 79
c89 176 161 392 187 558 25 162 38 456 32 740 -6 227 -27 518 -39 530 -2 2 -4
-152 -5 -343 -3 -461 -23 -698 -89 -1032 -27 -138 -102 -447 -114 -469 -10
-18 -23 868 -18 1219 3 260 4 266 31 345 38 109 124 277 203 396 110 168 218
296 412 489 101 101 176 178 166 170 -182 -140 -484 -437 -579 -570 -33 -46
-84 -131 -113 -189 -29 -59 -51 -97 -48 -86 3 11 28 121 57 245 62 272 83 344
115 392 28 43 29 48 12 48 -16 0 -57 -62 -70 -104 -20 -67 -98 -391 -138 -571
-23 -104 -45 -192 -47 -195 -7 -6 5 608 18 950 11 305 33 594 55 729 8 52 12
96 9 99 -38 38 -82 -443 -102 -1108 -8 -281 -7 -2129 1 -2203 11 -98 -11 -16
-73 268 -73 334 -94 454 -120 691 -43 390 -60 743 -67 1454 -6 625 -12 590 70
431 53 -104 127 -288 157 -394 12 -42 24 -75 26 -73 7 6 -34 172 -68 276 -39
120 -108 267 -155 332 l-37 49 7 185 c7 180 5 231 -7 137z"/>
<path d="M5997 3803 c-10 -10 -8 -61 2 -67 11 -7 21 17 21 50 0 23 -10 31 -23
17z"/>
<path d="M5450 3460 c0 -5 5 -10 10 -10 6 0 10 5 10 10 0 6 -4 10 -10 10 -5 0
-10 -4 -10 -10z"/>
<path d="M6660 3410 c0 -5 5 -10 10 -10 6 0 10 5 10 10 0 6 -4 10 -10 10 -5 0
-10 -4 -10 -10z"/>
<path d="M5500 3355 c0 -8 7 -15 15 -15 8 0 15 7 15 15 0 8 -7 15 -15 15 -8 0
-15 -7 -15 -15z"/>
<path d="M6710 3305 c0 -8 7 -15 15 -15 8 0 15 7 15 15 0 8 -7 15 -15 15 -8 0
-15 -7 -15 -15z"/>
<path d="M5219 3256 c-7 -10 -25 -27 -38 -39 -14 -12 -36 -32 -49 -45 -22 -21
-23 -21 -17 -2 8 25 -11 27 -24 1 -16 -29 28 -38 51 -11 9 11 20 20 24 20 13
0 75 71 72 82 -3 7 -9 5 -19 -6z"/>
<path d="M5155 3240 c-16 -18 -16 -20 -2 -20 9 0 21 9 27 20 6 11 7 20 2 20
-5 0 -17 -9 -27 -20z"/>
<path d="M6422 3208 c-7 -7 -12 -17 -12 -23 0 -21 -80 -63 -80 -42 -1 7 -10 1
-21 -12 -22 -27 -18 -41 8 -20 9 8 14 9 10 2 -4 -6 -3 -14 2 -18 6 -3 15 4 21
15 6 11 17 20 24 20 12 0 76 71 76 84 0 10 -15 7 -28 -6z"/>
<path d="M6360 3190 c-6 -11 -7 -20 -2 -20 5 0 17 9 27 20 16 18 16 20 2 20
-9 0 -21 -9 -27 -20z"/>
<path d="M5172 3168 c-7 -7 -12 -19 -12 -27 0 -11 4 -10 20 4 21 19 26 35 12
35 -4 0 -13 -5 -20 -12z"/>
<path d="M5040 3109 c-7 -11 -9 -24 -5 -27 7 -7 35 25 35 40 0 16 -19 8 -30
-13z"/>
<path d="M5091 3116 c-7 -8 -11 -23 -10 -33 3 -23 -10 -53 -22 -53 -6 0 -5 8
1 19 16 30 12 36 -10 16 -13 -11 -18 -25 -14 -37 4 -13 -2 -21 -19 -27 -24 -9
-43 -39 -31 -50 3 -3 11 2 18 12 7 9 18 17 24 17 6 0 16 9 22 20 6 11 17 20
25 20 13 0 28 29 23 46 -1 5 2 19 6 32 10 29 3 38 -13 18z"/>
<path d="M6376 3111 c-10 -11 -13 -22 -8 -25 9 -6 20 4 36 32 11 19 -9 14 -28
-7z"/>
<path d="M5120 3099 c-7 -11 -9 -24 -5 -27 7 -7 35 25 35 40 0 16 -19 8 -30
-13z"/>
<path d="M6250 3059 c-7 -11 -9 -24 -5 -27 7 -7 35 25 35 40 0 16 -19 8 -30
-13z"/>
<path d="M6302 3068 c-6 -6 -12 -19 -12 -27 0 -13 2 -13 16 1 9 9 15 21 13 27
-3 9 -8 8 -17 -1z"/>
<path d="M6330 3050 c-7 -13 -7 -20 -1 -20 6 0 15 9 21 20 7 13 7 20 1 20 -6
0 -15 -9 -21 -20z"/>
<path d="M5002 3048 c-6 -6 -12 -19 -12 -27 0 -13 2 -13 16 1 9 9 15 21 13 27
-3 9 -8 8 -17 -1z"/>
<path d="M6250 3010 c-6 -10 -10 -23 -9 -27 4 -21 -2 -33 -16 -33 -16 0 -40
-38 -31 -48 4 -3 15 4 26 15 11 12 35 34 55 48 19 15 35 35 35 44 -1 12 -5 11
-21 -8 -11 -13 -22 -21 -26 -17 -4 3 -1 12 5 18 14 14 16 28 2 28 -5 0 -14 -9
-20 -20z"/>
<path d="M6200 2990 c-9 -16 -8 -20 5 -20 8 0 15 2 15 4 0 2 3 11 6 20 9 23
-13 20 -26 -4z"/>
<path d="M4941 2951 c-14 -25 -1 -35 15 -13 16 20 17 32 4 32 -5 0 -14 -8 -19
-19z"/>
<path d="M5023 2958 c-19 -25 -24 -38 -14 -38 11 0 35 39 28 46 -2 3 -9 -1
-14 -8z"/>
<path d="M4960 2910 c-6 -11 -7 -20 -2 -20 10 0 32 21 32 32 0 16 -19 8 -30
-12z"/>
<path d="M6150 2909 c-7 -11 -9 -24 -5 -27 7 -7 35 25 35 40 0 16 -19 8 -30
-13z"/>
<path d="M6220 2899 c-7 -11 -9 -24 -5 -27 7 -7 35 25 35 40 0 16 -19 8 -30
-13z"/>
<path d="M6170 2869 c-7 -11 -9 -24 -5 -27 7 -7 35 25 35 40 0 16 -19 8 -30
-13z"/>
</g>
</svg>
